<svg data-v-2cb57da0="" version="1.0" xmlns="http://www.w3.org/2000/svg" xmlns:xlink="http://www.w3.org/1999/xlink" width="100%" height="100%" viewBox="0 0 340.000000 250.000000" preserveAspectRatio="xMidYMid meet" color-interpolation-filters="sRGB" style="margin: auto;"><rect data-v-2cb57da0="" x="0" y="0" width="100%" height="100%" fill="#fff" fill-opacity="1" class="background"></rect>  <g data-v-2cb57da0="" fill="#333" class="icon-text-wrapper icon-svg-group iconsvg" transform="translate(46.97999572753906,88.27804565429688)"><g class="iconsvg-imagesvg" transform="translate(0,0)"><g><rect fill="#333" fill-opacity="0" stroke-width="2" x="0" y="0" width="60" height="73.44390721586389" class="image-rect"></rect> <svg x="0" y="0" width="60" height="73.44390721586389" filtersec="colorsb6124082900" class="image-svg-svg primary" style="overflow: visible;"><svg xmlns="http://www.w3.org/2000/svg" viewBox="0.0007322460296563804 -0.00128936767578125 81.70841979980469 100.01615905761719"><path d="M65.68 67.05a6.52 6.52 0 1 1-6.52 6.51 6.51 6.51 0 0 1 6.52-6.51z" fill="#fc0"></path><path d="M53 .47l-.5.14a15.39 15.39 0 0 0-8 6 53.55 53.55 0 0 1 15.09 10.94C65.14 23.21 69.48 31 72.42 39a39.39 39.39 0 0 0-43.51-16.42l-.75.22a39.43 39.43 0 1 0 35.27 69.07c.52-.4-5.26-14.52-16.7-10.29-3 1.06-8.85 3.57-20.21-3C18 73.7 15.3 62.74 18.44 53.46a22.16 22.16 0 0 1 42.39 1.39A8.64 8.64 0 0 0 71.41 61c11.12-3 11.82-28.17 8.68-38.49C75.5 7.41 63.45-2.3 53 .47z" fill="#0077f0"></path><path d="M51.51 57a13.16 13.16 0 0 1-9.31 16.11 13.18 13.18 0 0 1-16.13-9.31 13.17 13.17 0 0 1 9.31-16.13A13.17 13.17 0 0 1 51.51 57z" fill="#3eae31"></path></svg></svg> <!----></g></g> <g transform="translate(67,17.286954879760742)"><g data-gra="path-name" fill-rule="" class="tp-name iconsvg-namesvg"><g transform="scale(1)"><g><path d="M26.77-21.56L18.84-21.56Q18.98-22.28 18.98-23.52L18.98-23.52Q18.98-24.24 18.88-24.93 18.79-25.63 18.55-26.18 18.31-26.73 17.83-27.04 17.35-27.35 16.59-27.35L16.59-27.35Q15.73-27.35 15.01-26.96 14.29-26.58 13.75-25.98 13.2-25.39 12.88-24.6 12.57-23.81 12.57-22.95L12.57-22.95Q12.57-21.71 13.22-21.04 13.86-20.37 14.92-19.94 15.97-19.51 17.31-19.22 18.65-18.93 20.08-18.55L20.08-18.55Q21.27-18.22 22.47-17.69 23.67-17.16 24.6-16.28 25.53-15.39 26.1-13.98 26.68-12.57 26.68-10.47L26.68-10.47Q26.68-7.46 25.48-5.4 24.29-3.35 22.18-2.06 20.08-0.76 17.19-0.19 14.29 0.38 10.9 0.38L10.9 0.38Q7.46 0.38 5.28-0.07 3.11-0.53 1.86-1.05L1.86-1.05Q0.38-1.67-0.33-2.49L-0.33-2.49 1.29-9.04 9.71-9.04Q9.66-8.61 9.61-7.86 9.56-7.12 9.56-6.69L9.56-6.69Q9.56-6.12 9.71-5.5 9.85-4.88 10.16-4.35 10.47-3.82 11.04-3.49 11.62-3.16 12.48-3.16L12.48-3.16Q13.43-3.16 14.18-3.59 14.92-4.02 15.42-4.66 15.92-5.31 16.18-6.1 16.45-6.88 16.45-7.65L16.45-7.65Q16.45-8.7 15.94-9.42 15.44-10.14 14.58-10.64 13.72-11.14 12.6-11.5 11.47-11.86 10.28-12.24L10.28-12.24Q9.13-12.57 7.86-13.05 6.6-13.53 5.55-14.39 4.49-15.25 3.8-16.57 3.11-17.88 3.11-19.94L3.11-19.94Q3.11-23 4.66-25.08 6.22-27.16 8.58-28.45 10.95-29.74 13.77-30.29 16.59-30.84 19.12-30.84L19.12-30.84Q22.47-30.84 24.88-30.05 27.3-29.26 28.54-28.21L28.54-28.21 26.77-21.56ZM42.69-5.69L45.9-20.56 55.65-20.56 51.25 0 43.51 0 42.65-3.06 42.36-3.06Q41.12-1.58 38.99-0.6 36.86 0.38 34.71 0.38L34.71 0.38Q31.84 0.38 30.22-1.08 28.59-2.53 28.59-4.88L28.59-4.88Q28.59-6.07 29-7.86 29.4-9.66 29.74-11.24L29.74-11.24 31.75-20.56 41.45-20.56 39.06-9.37Q38.96-8.99 38.87-8.46 38.77-7.94 38.68-7.43 38.58-6.93 38.51-6.48 38.44-6.02 38.44-5.74L38.44-5.74Q38.44-5.02 38.75-4.52 39.06-4.02 39.87-4.02L39.87-4.02Q40.73-4.02 41.5-4.59 42.26-5.16 42.69-5.69L42.69-5.69ZM55.55 0L59.9-20.56 67.7-20.56 68.41-16.97 68.75-16.97Q69.85-18.69 71.57-19.89 73.29-21.08 76.11-21.08L76.11-21.08Q76.3-21.08 76.71-21.06 77.12-21.04 77.62-20.92 78.12-20.8 78.67-20.58 79.22-20.37 79.75-19.98L79.75-19.98 77.64-10.14 72.43-10.14Q72.33-13.1 71.9-14.27 71.47-15.44 70.52-15.44L70.52-15.44Q70.04-15.44 69.49-15.23 68.94-15.01 68.37-14.29L68.37-14.29 65.31 0 55.55 0ZM89.07-3.11L86.68 8.03 76.92 8.03 82.95-20.56 90.74-20.56 91.6-17.5 91.89-17.5Q93.61-19.31 95.74-20.1 97.86-20.89 99.92-20.89L99.92-20.89Q101.59-20.89 102.72-20.39 103.84-19.89 104.51-19.03 105.18-18.17 105.47-16.97 105.75-15.78 105.75-14.44L105.75-14.44Q105.75-13.77 105.66-12.43 105.56-11.09 105.23-9.44 104.89-7.79 104.27-6.05 103.65-4.3 102.62-2.87 101.59-1.43 100.04-0.53 98.49 0.38 96.33 0.38L96.33 0.38Q95.14 0.38 94.02 0.1 92.89-0.19 91.98-0.67 91.08-1.15 90.38-1.79 89.69-2.44 89.35-3.11L89.35-3.11 89.07-3.11ZM91.75-4.25L91.75-4.25Q92.89-4.25 93.66-5.47 94.42-6.69 94.9-8.34 95.38-9.99 95.59-11.64 95.81-13.29 95.81-14.1L95.81-14.1Q95.81-15.06 95.5-15.68 95.19-16.3 94.37-16.3L94.37-16.3Q93.47-16.3 92.65-15.66 91.84-15.01 91.46-14.53L91.46-14.53 89.59-5.78Q89.98-5.26 90.5-4.76 91.03-4.25 91.75-4.25ZM109.58-14.53L110.49-18.79Q112.92-19.98 115.48-20.53 118.04-21.08 121.2-21.08L121.2-21.08Q124.25-21.08 126.26-20.61 128.27-20.13 129.47-19.22 130.66-18.31 131.14-17.07 131.62-15.82 131.62-14.25L131.62-14.25Q131.62-13.34 131.5-12.29 131.38-11.24 131.24-10.52L131.24-10.52 128.99 0 121.29 0 120.43-3.06 120.14-3.06Q118.61-1.39 116.58-0.5 114.55 0.38 112.54 0.38L112.54 0.38Q111.39 0.38 110.29 0.05 109.2-0.29 108.33-0.98 107.47-1.67 106.95-2.75 106.42-3.82 106.42-5.35L106.42-5.35Q106.42-7.84 107.78-9.3 109.15-10.76 111.37-11.5 113.59-12.24 116.39-12.43 119.19-12.62 122.01-12.62L122.01-12.62Q122.1-13.1 122.25-13.98 122.39-14.87 122.39-15.54L122.39-15.54Q122.39-16.4 121.94-17.14 121.48-17.88 120.05-17.88L120.05-17.88Q118.37-17.88 117.59-16.9 116.8-15.92 116.56-14.53L116.56-14.53 109.58-14.53ZM120.72-6.69L121.48-10.37 120.62-10.37Q119.24-10.37 118.25-10.02 117.27-9.66 116.68-9.08 116.08-8.51 115.79-7.79 115.51-7.08 115.51-6.36L115.51-6.36Q115.51-5.21 116.1-4.64 116.7-4.06 117.51-4.06L117.51-4.06Q118.52-4.06 119.5-4.78 120.48-5.5 120.72-6.69L120.72-6.69ZM154.33-14.53L148.11-14.53Q148.16-14.77 148.21-15.01 148.25-15.25 148.25-15.54L148.25-15.54Q148.25-16.4 147.94-17.14 147.63-17.88 146.73-17.88L146.73-17.88Q145.91-17.88 145.1-17.19 144.29-16.49 144.29-15.35L144.29-15.35Q144.29-14.58 144.69-14.13 145.1-13.67 145.77-13.39 146.44-13.1 147.27-12.91 148.11-12.72 148.92-12.53L148.92-12.53Q150.07-12.24 151.1-11.83 152.13-11.43 152.94-10.76 153.75-10.09 154.23-9.11 154.71-8.13 154.71-6.69L154.71-6.69Q154.71-4.69 153.78-3.32 152.84-1.96 151.2-1.12 149.55-0.29 147.32 0.05 145.1 0.38 142.57 0.38L142.57 0.38Q138.69 0.38 136.16-0.19 133.63-0.76 132.62-1.29L132.62-1.29 133.63-6.07 140.08-6.07Q140.03-5.83 140.03-5.62 140.03-5.4 140.03-5.16L140.03-5.16Q140.03-4.06 140.53-3.42 141.04-2.77 142.28-2.77L142.28-2.77Q143.67-2.77 144.26-3.56 144.86-4.35 144.86-5.02L144.86-5.02Q144.86-5.69 144.36-6.19 143.86-6.69 143.09-7.05 142.33-7.41 141.39-7.67 140.46-7.94 139.6-8.18L139.6-8.18Q138.98-8.32 138.19-8.65 137.4-8.99 136.69-9.61 135.97-10.23 135.49-11.21 135.01-12.19 135.01-13.67L135.01-13.67Q135.01-15.78 136.04-17.19 137.07-18.6 138.72-19.46 140.37-20.32 142.45-20.7 144.53-21.08 146.63-21.08L146.63-21.08Q149.26-21.08 151.6-20.61 153.94-20.13 155.43-19.36L155.43-19.36 154.33-14.53ZM177.61-14.53L171.39-14.53Q171.44-14.77 171.49-15.01 171.54-15.25 171.54-15.54L171.54-15.54Q171.54-16.4 171.23-17.14 170.92-17.88 170.01-17.88L170.01-17.88Q169.2-17.88 168.38-17.19 167.57-16.49 167.57-15.35L167.57-15.35Q167.57-14.58 167.98-14.13 168.38-13.67 169.05-13.39 169.72-13.1 170.56-12.91 171.39-12.72 172.21-12.53L172.21-12.53Q173.35-12.24 174.38-11.83 175.41-11.43 176.22-10.76 177.04-10.09 177.51-9.11 177.99-8.13 177.99-6.69L177.99-6.69Q177.99-4.69 177.06-3.32 176.13-1.96 174.48-1.12 172.83-0.29 170.61 0.05 168.38 0.38 165.85 0.38L165.85 0.38Q161.98 0.38 159.44-0.19 156.91-0.76 155.9-1.29L155.9-1.29 156.91-6.07 163.36-6.07Q163.31-5.83 163.31-5.62 163.31-5.4 163.31-5.16L163.31-5.16Q163.31-4.06 163.82-3.42 164.32-2.77 165.56-2.77L165.56-2.77Q166.95-2.77 167.55-3.56 168.14-4.35 168.14-5.02L168.14-5.02Q168.14-5.69 167.64-6.19 167.14-6.69 166.37-7.05 165.61-7.41 164.68-7.67 163.75-7.94 162.88-8.18L162.88-8.18Q162.26-8.32 161.47-8.65 160.69-8.99 159.97-9.61 159.25-10.23 158.77-11.21 158.29-12.19 158.29-13.67L158.29-13.67Q158.29-15.78 159.32-17.19 160.35-18.6 162-19.46 163.65-20.32 165.73-20.7 167.81-21.08 169.91-21.08L169.91-21.08Q172.54-21.08 174.88-20.61 177.23-20.13 178.71-19.36L178.71-19.36 177.61-14.53Z" transform="translate(0.33000001311302185, 30.84000015258789)"></path></g> <!----> <!----> <!----> <!----> <!----> <!----> <!----></g></g> <!----></g></g><defs v-gra="od"></defs></svg>